NotoSerifGujarati-SemiBold.ufo
<glyph name="exclam" format="2">
  <advance width="380"/>
  <unicode hex="0021"/>
  <outline>
    <contour>
      <point x="175" y="216" type="line"/>
      <point x="226" y="216" type="line"/>
      <point x="274" y="714" type="line"/>
      <point x="127" y="714" type="line"/>
    </contour>
    <contour>
      <point x="201" y="-7" type="curve" smooth="yes"/>
      <point x="240" y="-7"/>
      <point x="274" y="11"/>
      <point x="274" y="66" type="curve" smooth="yes"/>
      <point x="274" y="123"/>
      <point x="240" y="141"/>
      <point x="201" y="141" type="curve" smooth="yes"/>
      <point x="160" y="141"/>
      <point x="128" y="123"/>
      <point x="128" y="66" type="curve" smooth="yes"/>
      <point x="128" y="11"/>
      <point x="160" y="-7"/>
    </contour>
  </outline>
</glyph>
<glyph name="quotedbl" format="2">
  <advance width="503"/>
  <unicode hex="0022"/>
  <outline>
    <contour>
      <point x="338" y="438" type="line"/>
      <point x="405" y="438" type="line"/>
      <point x="440" y="714" type="line"/>
      <point x="283" y="714" type="line"/>
    </contour>
    <contour>
      <point x="109" y="438" type="line"/>
      <point x="176" y="438" type="line"/>
      <point x="222" y="714" type="line"/>
      <point x="63" y="714" type="line"/>
    </contour>
  </outline>
</glyph>
<glyph name="parenleft" format="2">
  <advance width="449"/>
  <unicode hex="0028"/>
  <outline>
    <contour>
      <point x="352" y="-139" type="curve"/>
      <point x="352" y="-75" type="line"/>
      <point x="228" y="7"/>
      <point x="202" y="159"/>
      <point x="202" y="318" type="curve" smooth="yes"/>
      <point x="202" y="476"/>
      <point x="229" y="626"/>
      <point x="352" y="709" type="curve"/>
      <point x="352" y="772" type="line"/>
      <point x="127" y="683"/>
      <point x="39" y="532"/>
      <point x="39" y="318" type="curve" smooth="yes"/>
      <point x="39" y="103"/>
      <point x="127" y="-50"/>
    </contour>
  </outline>
</glyph>
<glyph name="parenright" format="2">
  <advance width="443"/>
  <unicode hex="0029"/>
  <outline>
    <contour>
      <point x="117" y="-134" type="line"/>
      <point x="322" y="-52"/>
      <point x="404" y="90"/>
      <point x="404" y="317" type="curve" smooth="yes"/>
      <point x="404" y="543"/>
      <point x="322" y="685"/>
      <point x="117" y="767" type="curve"/>
      <point x="117" y="711" type="line"/>
      <point x="247" y="630"/>
      <point x="269" y="476"/>
      <point x="269" y="317" type="curve" smooth="yes"/>
      <point x="269" y="159"/>
      <point x="247" y="4"/>
      <point x="117" y="-78" type="curve"/>
    </contour>
  </outline>
</glyph>
<glyph name="asterisk" format="2">
  <advance width="498"/>
  <unicode hex="002A"/>
  <outline>
    <contour>
      <point x="199" y="372" type="line"/>
      <point x="298" y="372" type="line"/>
      <point x="267" y="533" type="line"/>
      <point x="417" y="433" type="line"/>
      <point x="458" y="521" type="line"/>
      <point x="297" y="566" type="line"/>
      <point x="458" y="610" type="line"/>
      <point x="417" y="699" type="line"/>
      <point x="267" y="600" type="line"/>
      <point x="299" y="760" type="line"/>
      <point x="199" y="760" type="line"/>
      <point x="228" y="598" type="line"/>
      <point x="78" y="701" type="line"/>
      <point x="37" y="611" type="line"/>
      <point x="198" y="566" type="line"/>
      <point x="37" y="521" type="line"/>
      <point x="78" y="432" type="line"/>
      <point x="227" y="533" type="line"/>
    </contour>
  </outline>
</glyph>
<glyph name="comma" format="2">
  <advance width="347"/>
  <unicode hex="002C"/>
  <outline>
    <contour>
      <point x="107" y="-154" type="line"/>
      <point x="231" y="-120"/>
      <point x="278" y="-44"/>
      <point x="278" y="40" type="curve" smooth="yes"/>
      <point x="278" y="104"/>
      <point x="245" y="141"/>
      <point x="196" y="141" type="curve" smooth="yes"/>
      <point x="157" y="141"/>
      <point x="126" y="118"/>
      <point x="126" y="77" type="curve" smooth="yes"/>
      <point x="126" y="6"/>
      <point x="198" y="15"/>
      <point x="198" y="-23" type="curve" smooth="yes"/>
      <point x="198" y="-61"/>
      <point x="168" y="-86"/>
      <point x="107" y="-107" type="curve"/>
    </contour>
  </outline>
</glyph>
<glyph name="period" format="2">
  <advance width="332"/>
  <unicode hex="002E"/>
  <outline>
    <contour>
      <point x="200" y="-7" type="curve" smooth="yes"/>
      <point x="239" y="-7"/>
      <point x="273" y="11"/>
      <point x="273" y="66" type="curve" smooth="yes"/>
      <point x="273" y="123"/>
      <point x="239" y="141"/>
      <point x="200" y="141" type="curve" smooth="yes"/>
      <point x="159" y="141"/>
      <point x="127" y="123"/>
      <point x="127" y="66" type="curve" smooth="yes"/>
      <point x="127" y="11"/>
      <point x="159" y="-7"/>
    </contour>
  </outline>
</glyph>
<glyph name="colon" format="2">
  <advance width="332"/>
  <unicode hex="003A"/>
  <outline>
    <contour>
      <point x="200" y="394" type="curve" smooth="yes"/>
      <point x="239" y="394"/>
      <point x="273" y="412"/>
      <point x="273" y="468" type="curve" smooth="yes"/>
      <point x="273" y="524"/>
      <point x="239" y="542"/>
      <point x="200" y="542" type="curve" smooth="yes"/>
      <point x="159" y="542"/>
      <point x="127" y="524"/>
      <point x="127" y="468" type="curve" smooth="yes"/>
      <point x="127" y="412"/>
      <point x="159" y="394"/>
    </contour>
    <contour>
      <point x="200" y="-7" type="curve" smooth="yes"/>
      <point x="239" y="-7"/>
      <point x="273" y="11"/>
      <point x="273" y="66" type="curve" smooth="yes"/>
      <point x="273" y="123"/>
      <point x="239" y="141"/>
      <point x="200" y="141" type="curve" smooth="yes"/>
      <point x="159" y="141"/>
      <point x="127" y="123"/>
      <point x="127" y="66" type="curve" smooth="yes"/>
      <point x="127" y="11"/>
      <point x="159" y="-7"/>
    </contour>
  </outline>
</glyph>
<glyph name="semicolon" format="2">
  <advance width="353"/>
  <unicode hex="003B"/>
  <outline>
    <contour>
      <point x="107" y="-154" type="line"/>
      <point x="231" y="-120"/>
      <point x="278" y="-44"/>
      <point x="278" y="40" type="curve" smooth="yes"/>
      <point x="278" y="104"/>
      <point x="245" y="141"/>
      <point x="195" y="141" type="curve" smooth="yes"/>
      <point x="157" y="141"/>
      <point x="125" y="118"/>
      <point x="125" y="77" type="curve" smooth="yes"/>
      <point x="125" y="6"/>
      <point x="198" y="15"/>
      <point x="198" y="-23" type="curve"/>
      <point x="198" y="-62"/>
      <point x="168" y="-86"/>
      <point x="107" y="-107" type="curve"/>
    </contour>
    <contour>
      <point x="204" y="394" type="curve" smooth="yes"/>
      <point x="243" y="394"/>
      <point x="277" y="412"/>
      <point x="277" y="468" type="curve" smooth="yes"/>
      <point x="277" y="524"/>
      <point x="243" y="542"/>
      <point x="204" y="542" type="curve" smooth="yes"/>
      <point x="163" y="542"/>
      <point x="131" y="524"/>
      <point x="131" y="468" type="curve" smooth="yes"/>
      <point x="131" y="412"/>
      <point x="163" y="394"/>
    </contour>
  </outline>
</glyph>
<glyph name="question" format="2">
  <advance width="529"/>
  <unicode hex="003F"/>
  <outline>
    <contour>
      <point x="208" y="214" type="line"/>
      <point x="267" y="214" type="line"/>
      <point x="279" y="317" type="line"/>
      <point x="408" y="371"/>
      <point x="475" y="434"/>
      <point x="475" y="542" type="curve" smooth="yes"/>
      <point x="475" y="656"/>
      <point x="379" y="724"/>
      <point x="241" y="724" type="curve" smooth="yes"/>
      <point x="102" y="724"/>
      <point x="40" y="669"/>
      <point x="40" y="608" type="curve" smooth="yes"/>
      <point x="40" y="558"/>
      <point x="82" y="538"/>
      <point x="149" y="538" type="curve"/>
      <point x="149" y="614"/>
      <point x="176" y="669"/>
      <point x="247" y="669" type="curve" smooth="yes"/>
      <point x="312" y="669"/>
      <point x="341" y="624"/>
      <point x="341" y="558" type="curve" smooth="yes"/>
      <point x="341" y="477"/>
      <point x="310" y="398"/>
      <point x="195" y="351" type="curve"/>
    </contour>
    <contour>
      <point x="235" y="-7" type="curve" smooth="yes"/>
      <point x="274" y="-7"/>
      <point x="309" y="11"/>
      <point x="309" y="66" type="curve" smooth="yes"/>
      <point x="309" y="123"/>
      <point x="274" y="141"/>
      <point x="235" y="141" type="curve" smooth="yes"/>
      <point x="194" y="141"/>
      <point x="163" y="123"/>
      <point x="163" y="66" type="curve" smooth="yes"/>
      <point x="163" y="11"/>
      <point x="194" y="-7"/>
    </contour>
  </outline>
</glyph>
<glyph name="bracketleft" format="2">
  <advance width="407"/>
  <unicode hex="005B"/>
  <outline>
    <contour>
      <point x="68" y="-128" type="line"/>
      <point x="348" y="-128" type="line"/>
      <point x="348" y="-75" type="line"/>
      <point x="305" y="-75" type="line" smooth="yes"/>
      <point x="260" y="-75"/>
      <point x="223" y="-66"/>
      <point x="223" y="-3" type="curve" smooth="yes"/>
      <point x="223" y="635" type="line" smooth="yes"/>
      <point x="223" y="698"/>
      <point x="260" y="707"/>
      <point x="305" y="707" type="curve" smooth="yes"/>
      <point x="348" y="707" type="line"/>
      <point x="348" y="760" type="line"/>
      <point x="68" y="760" type="line"/>
    </contour>
  </outline>
</glyph>
<glyph name="bracketright" format="2">
  <advance width="464"/>
  <unicode hex="005D"/>
  <outline>
    <contour>
      <point x="117" y="-128" type="line"/>
      <point x="396" y="-128" type="line"/>
      <point x="396" y="760" type="line"/>
      <point x="117" y="760" type="line"/>
      <point x="117" y="707" type="line"/>
      <point x="160" y="707" type="line" smooth="yes"/>
      <point x="205" y="707"/>
      <point x="242" y="698"/>
      <point x="242" y="635" type="curve" smooth="yes"/>
      <point x="242" y="-3" type="line" smooth="yes"/>
      <point x="242" y="-66"/>
      <point x="205" y="-75"/>
      <point x="160" y="-75" type="curve" smooth="yes"/>
      <point x="117" y="-75" type="line"/>
    </contour>
  </outline>
</glyph>
<glyph name="braceleft" format="2">
  <advance width="476"/>
  <unicode hex="007B"/>
  <outline>
    <contour>
      <point x="306" y="-126" type="curve" smooth="yes"/>
      <point x="388" y="-126" type="line"/>
      <point x="388" y="-78" type="line"/>
      <point x="352" y="-78" type="line" smooth="yes"/>
      <point x="294" y="-78"/>
      <point x="277" y="-42"/>
      <point x="277" y="23" type="curve" smooth="yes"/>
      <point x="277" y="195" type="line" smooth="yes"/>
      <point x="277" y="258"/>
      <point x="242" y="300"/>
      <point x="167" y="316" type="curve"/>
      <point x="167" y="321" type="line"/>
      <point x="242" y="336"/>
      <point x="277" y="378"/>
      <point x="277" y="440" type="curve" smooth="yes"/>
      <point x="277" y="611" type="line" smooth="yes"/>
      <point x="277" y="677"/>
      <point x="294" y="712"/>
      <point x="353" y="712" type="curve" smooth="yes"/>
      <point x="388" y="712" type="line"/>
      <point x="388" y="760" type="line"/>
      <point x="306" y="760" type="line" smooth="yes"/>
      <point x="202" y="760"/>
      <point x="146" y="708"/>
      <point x="146" y="615" type="curve" smooth="yes"/>
      <point x="146" y="442" type="line" smooth="yes"/>
      <point x="146" y="365"/>
      <point x="95" y="346"/>
      <point x="29" y="344" type="curve"/>
      <point x="29" y="292" type="line"/>
      <point x="95" y="289"/>
      <point x="146" y="271"/>
      <point x="146" y="192" type="curve" smooth="yes"/>
      <point x="146" y="20" type="line" smooth="yes"/>
      <point x="146" y="-70"/>
      <point x="202" y="-126"/>
    </contour>
  </outline>
</glyph>
<glyph name="braceright" format="2">
  <advance width="505"/>
  <unicode hex="007D"/>
  <outline>
    <contour>
      <point x="117" y="-126" type="line"/>
      <point x="200" y="-126" type="line" smooth="yes"/>
      <point x="304" y="-126"/>
      <point x="358" y="-70"/>
      <point x="358" y="20" type="curve" smooth="yes"/>
      <point x="358" y="192" type="line" smooth="yes"/>
      <point x="358" y="271"/>
      <point x="410" y="289"/>
      <point x="476" y="292" type="curve"/>
      <point x="476" y="344" type="line"/>
      <point x="410" y="346"/>
      <point x="358" y="365"/>
      <point x="358" y="442" type="curve" smooth="yes"/>
      <point x="358" y="615" type="line" smooth="yes"/>
      <point x="358" y="708"/>
      <point x="304" y="760"/>
      <point x="200" y="760" type="curve" smooth="yes"/>
      <point x="117" y="760" type="line"/>
      <point x="117" y="712" type="line"/>
      <point x="153" y="712" type="line" smooth="yes"/>
      <point x="211" y="712"/>
      <point x="229" y="677"/>
      <point x="229" y="611" type="curve" smooth="yes"/>
      <point x="229" y="440" type="line" smooth="yes"/>
      <point x="229" y="378"/>
      <point x="263" y="336"/>
      <point x="338" y="321" type="curve"/>
      <point x="338" y="316" type="line"/>
      <point x="263" y="300"/>
      <point x="229" y="258"/>
      <point x="229" y="195" type="curve" smooth="yes"/>
      <point x="229" y="23" type="line" smooth="yes"/>
      <point x="229" y="-42"/>
      <point x="211" y="-78"/>
      <point x="153" y="-78" type="curve" smooth="yes"/>
      <point x="117" y="-78" type="line"/>
    </contour>
  </outline>
</glyph>
<glyph name="six-gujarati" format="2">
  <advance width="480"/>
  <unicode hex="0AEC"/>
  <outline>
    <contour>
      <point x="389" y="-176" type="line"/>
      <point x="425" y="-151"/>
      <point x="454" y="-118"/>
      <point x="454" y="-73" type="curve" smooth="yes"/>
      <point x="454" y="86"/>
      <point x="188" y="63"/>
      <point x="188" y="150" type="curve" smooth="yes"/>
      <point x="188" y="218"/>
      <point x="349" y="224"/>
      <point x="436" y="225" type="curve"/>
      <point x="404" y="336" type="line"/>
      <point x="321" y="337"/>
      <point x="218" y="328"/>
      <point x="148" y="292" type="curve" smooth="yes"/>
      <point x="103" y="269"/>
      <point x="72" y="233"/>
      <point x="72" y="184" type="curve" smooth="yes"/>
      <point x="72" y="18"/>
      <point x="333" y="39"/>
      <point x="333" y="-48" type="curve" smooth="yes"/>
      <point x="333" y="-71"/>
      <point x="313" y="-89"/>
      <point x="294" y="-100" type="curve"/>
    </contour>
    <contour>
      <point x="147" y="254" type="curve"/>
      <point x="198" y="287" type="line"/>
      <point x="176" y="304"/>
      <point x="162" y="322"/>
      <point x="162" y="348" type="curve" smooth="yes"/>
      <point x="162" y="437"/>
      <point x="353" y="431"/>
      <point x="401" y="505" type="curve"/>
      <point x="333" y="615" type="line"/>
      <point x="295" y="545"/>
      <point x="52" y="544"/>
      <point x="52" y="398" type="curve" smooth="yes"/>
      <point x="52" y="340"/>
      <point x="95" y="292"/>
    </contour>
  </outline>
</glyph>
<glyph name="quoteleft" format="2">
  <advance width="267"/>
  <unicode hex="2018"/>
  <outline>
    <contour>
      <point x="141" y="419" type="curve" smooth="yes"/>
      <point x="180" y="419"/>
      <point x="209" y="442"/>
      <point x="209" y="484" type="curve" smooth="yes"/>
      <point x="209" y="555"/>
      <point x="137" y="545"/>
      <point x="137" y="584" type="curve" smooth="yes"/>
      <point x="137" y="623"/>
      <point x="166" y="646"/>
      <point x="227" y="667" type="curve"/>
      <point x="227" y="714" type="line"/>
      <point x="103" y="680"/>
      <point x="56" y="604"/>
      <point x="56" y="520" type="curve" smooth="yes"/>
      <point x="56" y="457"/>
      <point x="91" y="419"/>
    </contour>
  </outline>
</glyph>
<glyph name="quoteright" format="2">
  <advance width="276"/>
  <unicode hex="2019"/>
  <outline>
    <contour>
      <point x="39" y="407" type="line"/>
      <point x="170" y="442"/>
      <point x="219" y="518"/>
      <point x="219" y="603" type="curve" smooth="yes"/>
      <point x="219" y="672"/>
      <point x="183" y="714"/>
      <point x="127" y="714" type="curve" smooth="yes"/>
      <point x="85" y="714"/>
      <point x="54" y="690"/>
      <point x="54" y="645" type="curve" smooth="yes"/>
      <point x="54" y="564"/>
      <point x="127" y="575"/>
      <point x="127" y="537" type="curve" smooth="yes"/>
      <point x="127" y="498"/>
      <point x="98" y="480"/>
      <point x="39" y="459" type="curve"/>
    </contour>
  </outline>
</glyph>
<glyph name="quotedblright" format="2">
  <advance width="485"/>
  <unicode hex="201D"/>
  <outline>
    <contour>
      <point x="249" y="407" type="line"/>
      <point x="380" y="442"/>
      <point x="429" y="518"/>
      <point x="429" y="603" type="curve" smooth="yes"/>
      <point x="429" y="672"/>
      <point x="392" y="714"/>
      <point x="336" y="714" type="curve" smooth="yes"/>
      <point x="295" y="714"/>
      <point x="264" y="690"/>
      <point x="264" y="645" type="curve" smooth="yes"/>
      <point x="264" y="564"/>
      <point x="337" y="575"/>
      <point x="337" y="537" type="curve" smooth="yes"/>
      <point x="337" y="498"/>
      <point x="307" y="480"/>
      <point x="249" y="459" type="curve"/>
    </contour>
    <contour>
      <point x="39" y="407" type="line"/>
      <point x="170" y="442"/>
      <point x="219" y="518"/>
      <point x="219" y="603" type="curve" smooth="yes"/>
      <point x="219" y="672"/>
      <point x="183" y="714"/>
      <point x="127" y="714" type="curve" smooth="yes"/>
      <point x="85" y="714"/>
      <point x="54" y="690"/>
      <point x="54" y="645" type="curve" smooth="yes"/>
      <point x="54" y="564"/>
      <point x="127" y="575"/>
      <point x="127" y="537" type="curve" smooth="yes"/>
      <point x="127" y="498"/>
      <point x="98" y="480"/>
      <point x="39" y="459" type="curve"/>
    </contour>
  </outline>
</glyph>
<glyph name="rupeeIndian" format="2">
  <advance width="559"/>
  <unicode hex="20B9"/>
  <outline>
    <contour>
      <point x="408" y="2" type="curve" smooth="yes"/>
      <point x="461" y="2" type="line"/>
      <point x="461" y="51" type="line"/>
      <point x="447" y="51" type="line" smooth="yes"/>
      <point x="409" y="51"/>
      <point x="373" y="80"/>
      <point x="334" y="135" type="curve" smooth="yes"/>
      <point x="201" y="323" type="line"/>
      <point x="334" y="329"/>
      <point x="403" y="394"/>
      <point x="417" y="485" type="curve"/>
      <point x="520" y="485" type="line"/>
      <point x="520" y="541" type="line"/>
      <point x="421" y="541" type="line"/>
      <point x="417" y="590"/>
      <point x="399" y="633"/>
      <point x="363" y="661" type="curve"/>
      <point x="520" y="661" type="line"/>
      <point x="520" y="716" type="line"/>
      <point x="47" y="716" type="line"/>
      <point x="47" y="661" type="line"/>
      <point x="112" y="661" type="line" smooth="yes"/>
      <point x="214" y="661"/>
      <point x="263" y="624"/>
      <point x="270" y="541" type="curve"/>
      <point x="49" y="541" type="line"/>
      <point x="49" y="485" type="line"/>
      <point x="269" y="485" type="line"/>
      <point x="260" y="397"/>
      <point x="217" y="363"/>
      <point x="112" y="363" type="curve" smooth="yes"/>
      <point x="48" y="363" type="line"/>
      <point x="48" y="321" type="line"/>
      <point x="198" y="98" type="line" smooth="yes"/>
      <point x="245" y="28"/>
      <point x="284" y="2"/>
    </contour>
  </outline>
</glyph>
<glyph name="sh_la-gujarati" format="2">
  <advance width="741"/>
  <anchor x="583" y="0" name="bottom"/>
  <anchor x="180" y="-63" name="bottomleft"/>
  <anchor x="583" y="0" name="bottomright"/>
  <anchor x="583" y="612" name="top"/>
  <anchor x="583" y="592" name="topright"/>
  <outline>
    <contour>
      <point x="100" y="239" type="line"/>
      <point x="269" y="280"/>
      <point x="436" y="371"/>
      <point x="436" y="487" type="curve" smooth="yes"/>
      <point x="436" y="537"/>
      <point x="402" y="584"/>
      <point x="361" y="619" type="curve" smooth="yes"/>
      <point x="325" y="650"/>
      <point x="284" y="665"/>
      <point x="243" y="665" type="curve" smooth="yes"/>
      <point x="169" y="665"/>
      <point x="115" y="621"/>
      <point x="115" y="551" type="curve" smooth="yes"/>
      <point x="115" y="403"/>
      <point x="328" y="315"/>
      <point x="579" y="315" type="curve"/>
      <point x="579" y="371" type="line"/>
      <point x="372" y="371"/>
      <point x="224" y="435"/>
      <point x="224" y="526" type="curve" smooth="yes"/>
      <point x="224" y="563"/>
      <point x="247" y="590"/>
      <point x="282" y="590" type="curve" smooth="yes"/>
      <point x="318" y="590"/>
      <point x="336" y="562"/>
      <point x="336" y="530" type="curve" smooth="yes"/>
      <point x="336" y="440"/>
      <point x="202" y="375"/>
      <point x="32" y="336" type="curve"/>
    </contour>
    <contour>
      <point x="410" y="-46" type="curve" smooth="yes"/>
      <point x="446" y="-46"/>
      <point x="480" y="-36"/>
      <point x="503" y="-20" type="curve"/>
      <point x="458" y="57" type="line"/>
      <point x="431" y="39"/>
      <point x="399" y="28"/>
      <point x="367" y="28" type="curve" smooth="yes"/>
      <point x="316" y="28"/>
      <point x="284" y="58"/>
      <point x="284" y="98" type="curve" smooth="yes"/>
      <point x="284" y="146"/>
      <point x="327" y="179"/>
      <point x="405" y="199" type="curve"/>
      <point x="368" y="280" type="line"/>
      <point x="270" y="265"/>
      <point x="211" y="211"/>
      <point x="211" y="133" type="curve" smooth="yes"/>
      <point x="211" y="91"/>
      <point x="232" y="47"/>
      <point x="269" y="12" type="curve" smooth="yes"/>
      <point x="311" y="-28"/>
      <point x="363" y="-46"/>
    </contour>
    <contour>
      <point x="369" y="61" type="line"/>
      <point x="560" y="132" type="line"/>
      <point x="546" y="208" type="line"/>
      <point x="337" y="134" type="line"/>
    </contour>
    <contour>
      <point x="701" y="-5" type="curve" smooth="yes"/>
      <point x="737" y="-5"/>
      <point x="765" y="13"/>
      <point x="785" y="31" type="curve"/>
      <point x="731" y="128" type="line"/>
      <point x="706" y="98"/>
      <point x="675" y="79"/>
      <point x="653" y="79" type="curve" smooth="yes"/>
      <point x="647" y="79"/>
      <point x="644" y="82"/>
      <point x="644" y="89" type="curve" smooth="yes"/>
      <point x="644" y="579" type="line"/>
      <point x="522" y="612" type="line"/>
      <point x="522" y="149" type="line" smooth="yes"/>
      <point x="522" y="99"/>
      <point x="546" y="71"/>
      <point x="589" y="40" type="curve" smooth="yes"/>
      <point x="629" y="11"/>
      <point x="662" y="-5"/>
    </contour>
  </outline>
</glyph>
